RobotoSerifMicroCond-Hairline Italic 08fz.ufo
<glyph name="acute.pl" format="2">
  <advance width="410"/>
  <anchor x="167" y="489" name="_top"/>
  <outline>
    <contour>
      <point x="201" y="797" type="curve" smooth="yes"/>
      <point x="167" y="680" type="line"/>
      <point x="167" y="661" type="line"/>
      <point x="186" y="661" type="line"/>
      <point x="255" y="763" type="line" smooth="yes"/>
      <point x="274" y="788"/>
      <point x="285" y="803"/>
      <point x="285" y="825" type="curve" smooth="yes"/>
      <point x="285" y="849"/>
      <point x="271" y="863"/>
      <point x="249" y="863" type="curve" smooth="yes"/>
      <point x="221" y="863"/>
      <point x="211" y="836"/>
    </contour>
  </outline>
</glyph>
<glyph name="acute.uc" format="2">
  <advance width="410"/>
  <anchor x="159" y="727" name="_top"/>
  <outline>
    <contour>
      <point x="211" y="904" type="curve" smooth="yes"/>
      <point x="133" y="814" type="line"/>
      <point x="129" y="793" type="line"/>
      <point x="150" y="793" type="line"/>
      <point x="252" y="862" type="line" smooth="yes"/>
      <point x="284" y="882"/>
      <point x="303" y="897"/>
      <point x="303" y="922" type="curve" smooth="yes"/>
      <point x="303" y="940"/>
      <point x="292" y="956"/>
      <point x="271" y="956" type="curve" smooth="yes"/>
      <point x="248" y="956"/>
      <point x="234" y="934"/>
    </contour>
  </outline>
</glyph>
<glyph name="acute.ucpl" format="2">
  <advance width="410"/>
  <anchor x="137" y="694" name="_top"/>
  <outline>
    <contour>
      <point x="207" y="912" type="curve" smooth="yes"/>
      <point x="178" y="812" type="line"/>
      <point x="177" y="793" type="line"/>
      <point x="197" y="793" type="line"/>
      <point x="261" y="876" type="line" smooth="yes"/>
      <point x="281" y="899"/>
      <point x="295" y="920"/>
      <point x="295" y="942" type="curve" smooth="yes"/>
      <point x="295" y="966"/>
      <point x="280" y="981"/>
      <point x="259" y="981" type="curve" smooth="yes"/>
      <point x="231" y="981"/>
      <point x="218" y="951"/>
    </contour>
  </outline>
</glyph>
<glyph name="breve" format="2">
  <advance width="410"/>
  <anchor x="202" y="517" name="_top"/>
  <outline>
    <contour>
      <point x="209" y="674" type="curve" smooth="yes"/>
      <point x="290" y="674"/>
      <point x="325" y="721"/>
      <point x="338" y="825" type="curve"/>
      <point x="305" y="825" type="line"/>
      <point x="288" y="746"/>
      <point x="272" y="726"/>
      <point x="210" y="726" type="curve" smooth="yes"/>
      <point x="135" y="726"/>
      <point x="129" y="753"/>
      <point x="132" y="825" type="curve"/>
      <point x="99" y="825" type="line"/>
      <point x="96" y="805"/>
      <point x="95" y="791"/>
      <point x="95" y="778" type="curve" smooth="yes"/>
      <point x="95" y="714"/>
      <point x="120" y="674"/>
    </contour>
  </outline>
</glyph>
<glyph name="breve.uc" format="2">
  <advance width="410"/>
  <anchor x="203" y="694" name="_top"/>
  <outline>
    <contour>
      <point x="205" y="795" type="curve" smooth="yes"/>
      <point x="116" y="795"/>
      <point x="84" y="832"/>
      <point x="84" y="897" type="curve" smooth="yes"/>
      <point x="84" y="911"/>
      <point x="85" y="924"/>
      <point x="88" y="945" type="curve"/>
      <point x="124" y="945" type="line"/>
      <point x="120" y="874"/>
      <point x="130" y="850"/>
      <point x="209" y="850" type="curve" smooth="yes"/>
      <point x="273" y="850"/>
      <point x="293" y="863"/>
      <point x="308" y="945" type="curve"/>
      <point x="345" y="945" type="line"/>
      <point x="333" y="841"/>
      <point x="294" y="795"/>
    </contour>
  </outline>
</glyph>
<glyph name="breve_hook" format="2">
  <advance width="412"/>
  <anchor x="197" y="525" name="_top"/>
  <outline>
    <contour>
      <point x="124" y="1003" type="line"/>
      <point x="140" y="1073"/>
      <point x="186" y="1104"/>
      <point x="250" y="1104" type="curve" smooth="yes"/>
      <point x="325" y="1104"/>
      <point x="354" y="1064"/>
      <point x="354" y="1015" type="curve" smooth="yes"/>
      <point x="354" y="940"/>
      <point x="296" y="914"/>
      <point x="219" y="915" type="curve"/>
      <point x="250" y="945" type="line"/>
      <point x="235" y="863" type="line"/>
      <point x="193" y="863" type="line"/>
      <point x="210" y="948" type="line"/>
      <point x="267" y="950"/>
      <point x="304" y="954"/>
      <point x="304" y="1016" type="curve" smooth="yes"/>
      <point x="304" y="1050"/>
      <point x="289" y="1065"/>
      <point x="248" y="1065" type="curve" smooth="yes"/>
      <point x="205" y="1065"/>
      <point x="186" y="1048"/>
      <point x="174" y="1003" type="curve"/>
    </contour>
    <contour>
      <point x="99" y="825" type="curve"/>
      <point x="132" y="825" type="line"/>
      <point x="129" y="753"/>
      <point x="135" y="726"/>
      <point x="210" y="726" type="curve" smooth="yes"/>
      <point x="272" y="726"/>
      <point x="288" y="746"/>
      <point x="305" y="825" type="curve"/>
      <point x="338" y="825" type="line"/>
      <point x="325" y="721"/>
      <point x="290" y="674"/>
      <point x="209" y="674" type="curve" smooth="yes"/>
      <point x="120" y="674"/>
      <point x="95" y="714"/>
      <point x="95" y="778" type="curve" smooth="yes"/>
      <point x="95" y="791"/>
      <point x="96" y="805"/>
    </contour>
  </outline>
</glyph>
<glyph name="breve_hook.uc" format="2">
  <advance width="414"/>
  <anchor x="199" y="724" name="_top"/>
  <outline>
    <contour>
      <point x="115" y="1094" type="line"/>
      <point x="132" y="1170"/>
      <point x="182" y="1201"/>
      <point x="245" y="1201" type="curve" smooth="yes"/>
      <point x="320" y="1201"/>
      <point x="352" y="1159"/>
      <point x="352" y="1110" type="curve" smooth="yes"/>
      <point x="352" y="1034"/>
      <point x="293" y="1007"/>
      <point x="215" y="1006" type="curve"/>
      <point x="249" y="1034" type="line"/>
      <point x="233" y="952" type="line"/>
      <point x="187" y="952" type="line"/>
      <point x="205" y="1040" type="line"/>
      <point x="263" y="1042"/>
      <point x="300" y="1049"/>
      <point x="300" y="1110" type="curve" smooth="yes"/>
      <point x="300" y="1146"/>
      <point x="284" y="1162"/>
      <point x="243" y="1162" type="curve" smooth="yes"/>
      <point x="201" y="1162"/>
      <point x="180" y="1145"/>
      <point x="168" y="1094" type="curve"/>
    </contour>
    <contour>
      <point x="205" y="795" type="curve" smooth="yes"/>
      <point x="116" y="795"/>
      <point x="84" y="832"/>
      <point x="84" y="897" type="curve" smooth="yes"/>
      <point x="84" y="911"/>
      <point x="85" y="924"/>
      <point x="88" y="945" type="curve"/>
      <point x="124" y="945" type="line"/>
      <point x="120" y="874"/>
      <point x="130" y="850"/>
      <point x="209" y="850" type="curve" smooth="yes"/>
      <point x="273" y="850"/>
      <point x="293" y="863"/>
      <point x="308" y="945" type="curve"/>
      <point x="345" y="945" type="line"/>
      <point x="333" y="841"/>
      <point x="294" y="795"/>
    </contour>
  </outline>
</glyph>
<glyph name="circumflex_grave.uc" format="2">
  <advance width="417"/>
  <anchor x="191" y="696" name="_top"/>
  <outline>
    <contour>
      <point x="390" y="1014" type="line" smooth="yes"/>
      <point x="361" y="1056"/>
      <point x="349" y="1085"/>
      <point x="323" y="1085" type="curve" smooth="yes"/>
      <point x="303" y="1085"/>
      <point x="290" y="1064"/>
      <point x="290" y="1047" type="curve" smooth="yes"/>
      <point x="290" y="1022"/>
      <point x="315" y="1001"/>
      <point x="331" y="990" type="curve" smooth="yes"/>
      <point x="420" y="923" type="line"/>
      <point x="438" y="923" type="line"/>
      <point x="445" y="942" type="line"/>
    </contour>
    <component base="circumflex.uc"/>
  </outline>
</glyph>
<glyph name="circumflex_tilde" format="2">
  <advance width="411"/>
  <anchor x="196" y="551" name="_top"/>
  <outline>
    <contour>
      <point x="251" y="816" type="line"/>
      <point x="324" y="677" type="line"/>
      <point x="320" y="656" type="line"/>
      <point x="301" y="656" type="line"/>
      <point x="202" y="771" type="line"/>
      <point x="232" y="774" type="line"/>
      <point x="93" y="656" type="line"/>
      <point x="69" y="656" type="line"/>
      <point x="73" y="677" type="line"/>
      <point x="202" y="816" type="line"/>
    </contour>
    <contour>
      <point x="196" y="1019" type="curve" smooth="yes"/>
      <point x="159" y="1019"/>
      <point x="132" y="992"/>
      <point x="104" y="887" type="curve"/>
      <point x="136" y="878" type="line"/>
      <point x="156" y="944"/>
      <point x="166" y="975"/>
      <point x="191" y="975" type="curve" smooth="yes"/>
      <point x="230" y="975"/>
      <point x="221" y="879"/>
      <point x="291" y="879" type="curve" smooth="yes"/>
      <point x="328" y="879"/>
      <point x="350" y="899"/>
      <point x="380" y="1016" type="curve"/>
      <point x="348" y="1024" type="line"/>
      <point x="329" y="956"/>
      <point x="319" y="923"/>
      <point x="294" y="923" type="curve" smooth="yes"/>
      <point x="252" y="923"/>
      <point x="263" y="1019"/>
    </contour>
  </outline>
</glyph>
<glyph name="commaaccent" format="2">
  <advance width="383"/>
  <anchor x="200" y="33" name="_bottom"/>
  <outline>
    <contour>
      <point x="48" y="-333" type="line"/>
      <point x="151" y="-322"/>
      <point x="205" y="-250"/>
      <point x="205" y="-159" type="curve" smooth="yes"/>
      <point x="205" y="-116"/>
      <point x="185" y="-97"/>
      <point x="144" y="-97" type="curve" smooth="yes"/>
      <point x="106" y="-97"/>
      <point x="87" y="-115"/>
      <point x="87" y="-147" type="curve" smooth="yes"/>
      <point x="87" y="-175"/>
      <point x="106" y="-190"/>
      <point x="137" y="-190" type="curve" smooth="yes"/>
      <point x="154" y="-190"/>
      <point x="167" y="-185"/>
      <point x="179" y="-176" type="curve"/>
      <point x="175" y="-163"/>
      <point x="171" y="-162"/>
      <point x="169" y="-171" type="curve"/>
      <point x="157" y="-252"/>
      <point x="117" y="-282"/>
      <point x="36" y="-289" type="curve"/>
    </contour>
  </outline>
</glyph>
<glyph name="dblgrave" format="2">
  <advance width="410"/>
  <anchor x="183" y="539" name="_top"/>
  <outline>
    <contour>
      <point x="338" y="806" type="line" smooth="yes"/>
      <point x="330" y="842"/>
      <point x="322" y="863"/>
      <point x="297" y="863" type="curve" smooth="yes"/>
      <point x="276" y="863"/>
      <point x="262" y="847"/>
      <point x="262" y="829" type="curve" smooth="yes"/>
      <point x="262" y="811"/>
      <point x="272" y="794"/>
      <point x="293" y="757" type="curve" smooth="yes"/>
      <point x="351" y="661" type="line"/>
      <point x="371" y="661" type="line"/>
      <point x="367" y="680" type="line"/>
    </contour>
    <contour>
      <point x="187" y="806" type="line" smooth="yes"/>
      <point x="179" y="842"/>
      <point x="171" y="863"/>
      <point x="146" y="863" type="curve" smooth="yes"/>
      <point x="125" y="863"/>
      <point x="111" y="847"/>
      <point x="111" y="829" type="curve" smooth="yes"/>
      <point x="111" y="811"/>
      <point x="121" y="794"/>
      <point x="143" y="757" type="curve" smooth="yes"/>
      <point x="200" y="661" type="line"/>
      <point x="220" y="661" type="line"/>
      <point x="216" y="680" type="line"/>
    </contour>
  </outline>
</glyph>
<glyph name="dblgrave.uc" format="2">
  <advance width="410"/>
  <anchor x="242" y="734" name="_top"/>
  <outline>
    <contour>
      <point x="319" y="919" type="line" smooth="yes"/>
      <point x="309" y="955"/>
      <point x="301" y="981"/>
      <point x="274" y="981" type="curve" smooth="yes"/>
      <point x="255" y="981"/>
      <point x="240" y="965"/>
      <point x="240" y="948" type="curve" smooth="yes"/>
      <point x="240" y="925"/>
      <point x="250" y="912"/>
      <point x="275" y="881" type="curve" smooth="yes"/>
      <point x="337" y="793" type="line"/>
      <point x="357" y="793" type="line"/>
      <point x="353" y="812" type="line"/>
    </contour>
    <contour>
      <point x="170" y="919" type="line" smooth="yes"/>
      <point x="160" y="955"/>
      <point x="151" y="981"/>
      <point x="125" y="981" type="curve" smooth="yes"/>
      <point x="106" y="981"/>
      <point x="91" y="965"/>
      <point x="91" y="948" type="curve" smooth="yes"/>
      <point x="91" y="925"/>
      <point x="101" y="912"/>
      <point x="125" y="881" type="curve" smooth="yes"/>
      <point x="188" y="793" type="line"/>
      <point x="208" y="793" type="line"/>
      <point x="204" y="812" type="line"/>
    </contour>
  </outline>
</glyph>
<glyph name="f_f.alt" format="2">
  <advance width="641"/>
  <outline>
    <contour>
      <point x="83" y="565" type="line"/>
      <point x="75" y="523" type="line"/>
      <point x="378" y="523" type="line"/>
      <point x="386" y="565" type="line"/>
    </contour>
    <contour>
      <point x="376" y="736" type="curve" smooth="yes"/>
      <point x="455" y="736"/>
      <point x="502" y="710"/>
      <point x="528" y="693" type="curve"/>
      <point x="523" y="712"/>
      <point x="511" y="728"/>
      <point x="492" y="741" type="curve"/>
      <point x="474" y="642" type="line"/>
      <point x="519" y="641" type="line"/>
      <point x="543" y="731" type="line"/>
      <point x="525" y="743"/>
      <point x="461" y="775"/>
      <point x="380" y="775" type="curve" smooth="yes"/>
      <point x="263" y="775"/>
      <point x="210" y="728"/>
      <point x="195" y="643" type="curve" smooth="yes"/>
      <point x="39" y="-223" type="line"/>
      <point x="79" y="-223" type="line"/>
      <point x="243" y="637" type="line" smooth="yes"/>
      <point x="256" y="704"/>
      <point x="285" y="736"/>
    </contour>
    <contour>
      <point x="362" y="565" type="line"/>
      <point x="354" y="523" type="line"/>
      <point x="635" y="523" type="line"/>
      <point x="643" y="565" type="line"/>
    </contour>
    <contour>
      <point x="624" y="790" type="curve" smooth="yes"/>
      <point x="531" y="790"/>
      <point x="492" y="740"/>
      <point x="477" y="658" type="curve" smooth="yes"/>
      <point x="318" y="-223" type="line"/>
      <point x="358" y="-223" type="line"/>
      <point x="525" y="652" type="line" smooth="yes"/>
      <point x="538" y="720"/>
      <point x="560" y="753"/>
      <point x="623" y="753" type="curve" smooth="yes"/>
      <point x="656" y="753"/>
      <point x="690" y="741"/>
      <point x="710" y="729" type="curve"/>
      <point x="706" y="749"/>
      <point x="702" y="761"/>
      <point x="686" y="773" type="curve"/>
      <point x="657" y="661" type="line"/>
      <point x="706" y="661" type="line"/>
      <point x="733" y="765" type="line"/>
      <point x="715" y="775"/>
      <point x="669" y="790"/>
    </contour>
  </outline>
</glyph>
<glyph name="grave" format="2">
  <advance width="410"/>
  <anchor x="169" y="531" name="_top"/>
  <outline>
    <contour>
      <point x="228" y="790" type="curve" smooth="yes"/>
      <point x="271" y="680" type="line"/>
      <point x="268" y="661" type="line"/>
      <point x="247" y="661" type="line"/>
      <point x="171" y="767" type="line" smooth="yes"/>
      <point x="155" y="787"/>
      <point x="144" y="804"/>
      <point x="144" y="821" type="curve" smooth="yes"/>
      <point x="144" y="842"/>
      <point x="158" y="857"/>
      <point x="179" y="857" type="curve" smooth="yes"/>
      <point x="206" y="857"/>
      <point x="213" y="833"/>
    </contour>
  </outline>
</glyph>
<glyph name="grave.uc" format="2">
  <advance width="411"/>
  <anchor x="219" y="694" name="_top"/>
  <outline>
    <contour>
      <point x="275" y="793" type="line"/>
      <point x="178" y="864" type="line" smooth="yes"/>
      <point x="157" y="879"/>
      <point x="138" y="894"/>
      <point x="138" y="917" type="curve" smooth="yes"/>
      <point x="138" y="938"/>
      <point x="153" y="956"/>
      <point x="174" y="956" type="curve" smooth="yes"/>
      <point x="199" y="956"/>
      <point x="214" y="929"/>
      <point x="238" y="892" type="curve" smooth="yes"/>
      <point x="298" y="814" type="line"/>
      <point x="294" y="793" type="line"/>
    </contour>
  </outline>
</glyph>
<glyph name="hook.uc" format="2">
  <advance width="410"/>
  <anchor x="174" y="679" name="_top"/>
  <outline>
    <contour>
      <point x="81" y="938" type="line"/>
      <point x="101" y="1020"/>
      <point x="152" y="1057"/>
      <point x="221" y="1057" type="curve" smooth="yes"/>
      <point x="302" y="1057"/>
      <point x="337" y="1021"/>
      <point x="337" y="964" type="curve" smooth="yes"/>
      <point x="337" y="870"/>
      <point x="283" y="849"/>
      <point x="195" y="849" type="curve"/>
      <point x="229" y="874" type="line"/>
      <point x="211" y="792" type="line"/>
      <point x="161" y="792" type="line"/>
      <point x="180" y="885" type="line"/>
      <point x="249" y="887"/>
      <point x="286" y="887"/>
      <point x="286" y="962" type="curve" smooth="yes"/>
      <point x="286" y="998"/>
      <point x="269" y="1016"/>
      <point x="221" y="1016" type="curve" smooth="yes"/>
      <point x="178" y="1016"/>
      <point x="150" y="996"/>
      <point x="134" y="938" type="curve"/>
    </contour>
  </outline>
</glyph>
<glyph name="hungarumlaut.uc" format="2">
  <advance width="410"/>
  <anchor x="227" y="694" name="_top"/>
  <outline>
    <contour>
      <point x="102" y="919" type="curve" smooth="yes"/>
      <point x="53" y="812" type="line"/>
      <point x="49" y="793" type="line"/>
      <point x="69" y="793" type="line"/>
      <point x="146" y="881" type="line" smooth="yes"/>
      <point x="173" y="909"/>
      <point x="187" y="923"/>
      <point x="187" y="948" type="curve" smooth="yes"/>
      <point x="187" y="967"/>
      <point x="173" y="981"/>
      <point x="154" y="981" type="curve" smooth="yes"/>
      <point x="128" y="981"/>
      <point x="116" y="953"/>
    </contour>
    <contour>
      <point x="251" y="919" type="curve" smooth="yes"/>
      <point x="202" y="812" type="line"/>
      <point x="198" y="793" type="line"/>
      <point x="218" y="793" type="line"/>
      <point x="295" y="881" type="line" smooth="yes"/>
      <point x="322" y="909"/>
      <point x="336" y="923"/>
      <point x="336" y="948" type="curve" smooth="yes"/>
      <point x="336" y="967"/>
      <point x="323" y="981"/>
      <point x="304" y="981" type="curve" smooth="yes"/>
      <point x="277" y="981"/>
      <point x="265" y="953"/>
    </contour>
  </outline>
</glyph>
<glyph name="macron" format="2">
  <advance width="410"/>
  <anchor x="205" y="526" name="_top"/>
  <outline>
    <contour>
      <point x="76" y="766" type="line"/>
      <point x="64" y="714" type="line"/>
      <point x="335" y="714" type="line"/>
      <point x="347" y="766" type="line"/>
    </contour>
  </outline>
</glyph>
<glyph name="tilde" format="2">
  <advance width="410"/>
  <anchor x="205" y="516" name="_top"/>
  <outline>
    <contour>
      <point x="254" y="668" type="curve" smooth="yes"/>
      <point x="296" y="668"/>
      <point x="317" y="696"/>
      <point x="349" y="827" type="curve"/>
      <point x="316" y="836" type="line"/>
      <point x="294" y="746"/>
      <point x="283" y="712"/>
      <point x="257" y="712" type="curve" smooth="yes"/>
      <point x="218" y="712"/>
      <point x="228" y="831"/>
      <point x="156" y="831" type="curve" smooth="yes"/>
      <point x="113" y="831"/>
      <point x="88" y="799"/>
      <point x="60" y="676" type="curve"/>
      <point x="94" y="667" type="line"/>
      <point x="114" y="753"/>
      <point x="125" y="787"/>
      <point x="150" y="787" type="curve" smooth="yes"/>
      <point x="192" y="787"/>
      <point x="180" y="668"/>
    </contour>
  </outline>
</glyph>
<glyph name="tilde.uc" format="2">
  <advance width="410"/>
  <anchor x="205" y="694" name="_top"/>
  <outline>
    <contour>
      <point x="257" y="789" type="curve" smooth="yes"/>
      <point x="302" y="789"/>
      <point x="325" y="823"/>
      <point x="356" y="956" type="curve"/>
      <point x="320" y="965" type="line"/>
      <point x="298" y="873"/>
      <point x="287" y="834"/>
      <point x="259" y="834" type="curve" smooth="yes"/>
      <point x="221" y="834"/>
      <point x="227" y="960"/>
      <point x="155" y="960" type="curve" smooth="yes"/>
      <point x="108" y="960"/>
      <point x="80" y="922"/>
      <point x="54" y="798" type="curve"/>
      <point x="89" y="788" type="line"/>
      <point x="109" y="875"/>
      <point x="122" y="915"/>
      <point x="147" y="915" type="curve" smooth="yes"/>
      <point x="188" y="915"/>
      <point x="180" y="789"/>
    </contour>
  </outline>
</glyph>
